<svg width="34" height="33" viewBox="0 0 34 33" fill="none" xmlns="http://www.w3.org/2000/svg">
<path d="M29.7069 11.3914C29.6931 10.3526 29.4986 9.32414 29.1322 8.352C28.8145 7.532 28.3292 6.78729 27.7074 6.16546C27.0856 5.54363 26.3408 5.05834 25.5208 4.74061C24.5612 4.38038 23.5474 4.18559 22.5226 4.16455C21.2031 4.10557 20.7848 4.08911 17.4354 4.08911C14.0859 4.08911 13.6566 4.08911 12.3468 4.16455C11.3224 4.18575 10.3091 4.38053 9.34986 4.74061C8.52973 5.05812 7.78491 5.54333 7.16305 6.16519C6.54119 6.78705 6.05598 7.53187 5.73848 8.352C5.37752 9.31092 5.18315 10.3245 5.16378 11.3489C5.10481 12.6697 5.08698 13.0881 5.08698 16.4375C5.08698 19.7869 5.08698 20.2148 5.16378 21.5261C5.18436 22.552 5.37775 23.5642 5.73848 24.5257C6.05652 25.3456 6.54208 26.0901 7.16415 26.7117C7.78622 27.3333 8.53111 27.8183 9.35123 28.1357C10.3078 28.5104 11.3213 28.7192 12.3481 28.7529C13.669 28.8119 14.0873 28.8298 17.4367 28.8298C20.7861 28.8298 21.2154 28.8298 22.5253 28.7529C23.5501 28.7328 24.564 28.5384 25.5236 28.1783C26.3434 27.8602 27.0879 27.3747 27.7097 26.753C28.3315 26.1312 28.8169 25.3867 29.135 24.5669C29.4957 23.6068 29.6891 22.5945 29.7097 21.5672C29.7686 20.2477 29.7865 19.8294 29.7865 16.4786C29.7837 13.1292 29.7837 12.704 29.7069 11.3914ZM17.4271 22.7715C13.9241 22.7715 11.0863 19.9337 11.0863 16.4306C11.0863 12.9276 13.9241 10.0898 17.4271 10.0898C19.1088 10.0898 20.7216 10.7578 21.9108 11.947C23.0999 13.1361 23.768 14.7489 23.768 16.4306C23.768 18.1123 23.0999 19.7251 21.9108 20.9143C20.7216 22.1034 19.1088 22.7715 17.4271 22.7715ZM24.0203 11.3338C23.8261 11.334 23.6338 11.2959 23.4543 11.2216C23.2748 11.1474 23.1118 11.0385 22.9744 10.9012C22.8371 10.7638 22.7282 10.6008 22.6539 10.4213C22.5797 10.2418 22.5416 10.0495 22.5418 9.85525C22.5418 9.66117 22.58 9.469 22.6543 9.28969C22.7285 9.11039 22.8374 8.94747 22.9746 8.81023C23.1119 8.673 23.2748 8.56414 23.4541 8.48987C23.6334 8.4156 23.8256 8.37737 24.0196 8.37737C24.2137 8.37737 24.4059 8.4156 24.5852 8.48987C24.7645 8.56414 24.9274 8.673 25.0647 8.81023C25.2019 8.94747 25.3108 9.11039 25.385 9.28969C25.4593 9.469 25.4975 9.66117 25.4975 9.85525C25.4975 10.6727 24.8364 11.3338 24.0203 11.3338Z" fill="white"/>
<path d="M17.427 20.549C19.7018 20.549 21.5459 18.7049 21.5459 16.4301C21.5459 14.1554 19.7018 12.3113 17.427 12.3113C15.1522 12.3113 13.3082 14.1554 13.3082 16.4301C13.3082 18.7049 15.1522 20.549 17.427 20.549Z" fill="white"/>
</svg>
