<svg width="34" height="33" viewBox="0 0 34 33" fill="none" xmlns="http://www.w3.org/2000/svg">
<path d="M31.5565 7.78534C31.1623 8.37585 30.7146 8.92887 30.2192 9.43741C29.7212 9.94921 29.1802 10.4173 28.6021 10.8364C28.6206 11.0946 28.6302 11.3533 28.6309 11.6121C28.6309 12.793 28.5054 13.9595 28.2523 15.1137C28.0002 16.2638 27.6321 17.3853 27.1537 18.4611C26.4911 19.9768 25.6154 21.39 24.5531 22.6581C23.5351 23.8707 22.3425 24.9253 21.0145 25.7874C19.6817 26.6474 18.2293 27.306 16.7042 27.7419C15.1129 28.1974 13.465 28.4253 11.8097 28.4188C10.2135 28.4208 8.62502 28.1957 7.09218 27.7501C5.55592 27.3029 4.0939 26.6318 2.75317 25.7586C4.30068 25.9457 5.86988 25.8257 7.37097 25.4056C8.87206 24.9855 10.2756 24.2735 11.5011 23.3103C10.5843 23.2975 9.68329 23.0692 8.87093 22.6439C8.05858 22.2186 7.35764 21.6082 6.82472 20.862C6.46124 20.3606 6.17869 19.8052 5.98737 19.2161C6.17459 19.2449 6.35976 19.2696 6.54286 19.2881C7.24904 19.3573 7.96191 19.2952 8.6455 19.105C7.97121 18.9721 7.32606 18.7199 6.74037 18.3603C6.17286 18.0115 5.6668 17.5715 5.2426 17.0579C4.37175 16.0035 3.89849 14.6769 3.9053 13.3094V13.2415C4.73237 13.7085 5.62733 13.9575 6.59224 13.9863C5.78766 13.4382 5.12709 12.7043 4.66653 11.8466C4.44099 11.4236 4.26628 10.9754 4.14602 10.5114C3.90107 9.52934 3.90602 8.50161 4.16042 7.52199C4.29003 7.02205 4.49166 6.5468 4.76529 6.09623C5.51417 7.02411 6.34947 7.85735 7.26706 8.59183C9.09074 10.0544 11.198 11.1227 13.4556 11.7293C14.5952 12.0347 15.7644 12.2161 16.9429 12.2704C16.886 12.0509 16.8462 11.8274 16.8236 11.6018C16.8004 11.3755 16.7887 11.1482 16.7886 10.9208C16.7886 10.104 16.9429 9.3366 17.2536 8.62063C17.8559 7.20591 18.9825 6.07929 20.3972 5.47696C21.1233 5.16621 21.9056 5.00862 22.6953 5.01405C23.5054 5.01011 24.3074 5.17428 25.0507 5.49619C25.794 5.81809 26.4625 6.29073 27.0138 6.88421C28.3337 6.62362 29.5989 6.13785 30.7541 5.44816C30.3258 6.81913 29.4034 7.98206 28.1659 8.71116C29.336 8.57516 30.479 8.26375 31.5565 7.7874V7.78534Z" fill="white"/>
</svg>
