<svg width="58" height="58" viewBox="0 0 58 58" fill="none" xmlns="http://www.w3.org/2000/svg">
<circle cx="29" cy="29" r="28.5" stroke="#248FA8"/>
<path d="M39 23.25H34.75V20C34.75 18.475 34.1442 17.0125 33.0659 15.9341C31.9875 14.8558 30.525 14.25 29 14.25C27.475 14.25 26.0125 14.8558 24.9341 15.9341C23.8558 17.0125 23.25 18.475 23.25 20V23.25H19C18.5359 23.25 18.0908 23.4344 17.7626 23.7626C17.4344 24.0908 17.25 24.5359 17.25 25V39C17.25 39.4641 17.4344 39.9092 17.7626 40.2374C18.0908 40.5656 18.5359 40.75 19 40.75H39C39.4641 40.75 39.9092 40.5656 40.2374 40.2374C40.5656 39.9092 40.75 39.4641 40.75 39V25C40.75 24.5359 40.5656 24.0908 40.2374 23.7626C39.9092 23.4344 39.4641 23.25 39 23.25ZM24.75 20C24.75 18.8728 25.1978 17.7918 25.9948 16.9948C26.7918 16.1978 27.8728 15.75 29 15.75C30.1272 15.75 31.2082 16.1978 32.0052 16.9948C32.8022 17.7918 33.25 18.8728 33.25 20V23.25H24.75V20ZM39.25 39C39.25 39.0663 39.2237 39.1299 39.1768 39.1768C39.1299 39.2237 39.0663 39.25 39 39.25H19C18.9337 39.25 18.8701 39.2237 18.8232 39.1768C18.7763 39.1299 18.75 39.0663 18.75 39V25C18.75 24.9337 18.7763 24.8701 18.8232 24.8232C18.8701 24.7763 18.9337 24.75 19 24.75H39C39.0663 24.75 39.1299 24.7763 39.1768 24.8232C39.2237 24.8701 39.25 24.9337 39.25 25V39ZM29 27.25C28.2042 27.2511 27.4364 27.5441 26.8422 28.0735C26.2481 28.6029 25.8688 29.3319 25.7763 30.1224C25.6839 30.9128 25.8846 31.7097 26.3406 32.362C26.7965 33.0142 27.4759 33.4765 28.25 33.6612V36C28.25 36.1989 28.329 36.3897 28.4697 36.5303C28.6103 36.671 28.8011 36.75 29 36.75C29.1989 36.75 29.3897 36.671 29.5303 36.5303C29.671 36.3897 29.75 36.1989 29.75 36V33.6612C30.5241 33.4765 31.2035 33.0142 31.6594 32.362C32.1154 31.7097 32.3161 30.9128 32.2237 30.1224C32.1312 29.3319 31.7519 28.6029 31.1578 28.0735C30.5636 27.5441 29.7958 27.2511 29 27.25ZM29 32.25C28.6539 32.25 28.3155 32.1474 28.0278 31.9551C27.74 31.7628 27.5157 31.4895 27.3832 31.1697C27.2508 30.8499 27.2161 30.4981 27.2836 30.1586C27.3511 29.8191 27.5178 29.5073 27.7626 29.2626C28.0073 29.0178 28.3191 28.8511 28.6586 28.7836C28.9981 28.7161 29.3499 28.7508 29.6697 28.8832C29.9895 29.0157 30.2628 29.24 30.4551 29.5278C30.6474 29.8155 30.75 30.1539 30.75 30.5C30.75 30.9641 30.5656 31.4092 30.2374 31.7374C29.9092 32.0656 29.4641 32.25 29 32.25Z" fill="#248FA8"/>
</svg>
