<svg width="58" height="58" viewBox="0 0 58 58" fill="none" xmlns="http://www.w3.org/2000/svg">
<circle cx="29" cy="29" r="28.5" stroke="#248FA8"/>
<path d="M39.53 21.47L34.53 16.47C34.3895 16.3293 34.1988 16.2502 34 16.25H24C23.5359 16.25 23.0908 16.4344 22.7626 16.7626C22.4344 17.0908 22.25 17.5359 22.25 18V20.25H20C19.5359 20.25 19.0908 20.4344 18.7626 20.7626C18.4344 21.0908 18.25 21.5359 18.25 22V40C18.25 40.4641 18.4344 40.9092 18.7626 41.2374C19.0908 41.5656 19.5359 41.75 20 41.75H34C34.4641 41.75 34.9092 41.5656 35.2374 41.2374C35.5656 40.9092 35.75 40.4641 35.75 40V37.75H38C38.4641 37.75 38.9092 37.5656 39.2374 37.2374C39.5656 36.9092 39.75 36.4641 39.75 36V22C39.7498 21.8012 39.6707 21.6105 39.53 21.47ZM34.25 40C34.25 40.0663 34.2237 40.1299 34.1768 40.1768C34.1299 40.2237 34.0663 40.25 34 40.25H20C19.9337 40.25 19.8701 40.2237 19.8232 40.1768C19.7763 40.1299 19.75 40.0663 19.75 40V22C19.75 21.9337 19.7763 21.8701 19.8232 21.8232C19.8701 21.7763 19.9337 21.75 20 21.75H29.6887L34.25 26.3112V40ZM38.25 36C38.25 36.0663 38.2237 36.1299 38.1768 36.1768C38.1299 36.2237 38.0663 36.25 38 36.25H35.75V26C35.7498 25.8012 35.6707 25.6105 35.53 25.47L30.53 20.47C30.3895 20.3293 30.1988 20.2502 30 20.25H23.75V18C23.75 17.9337 23.7763 17.8701 23.8232 17.8232C23.8701 17.7763 23.9337 17.75 24 17.75H33.6887L38.25 22.3112V36ZM30.75 32C30.75 32.1989 30.671 32.3897 30.5303 32.5303C30.3897 32.671 30.1989 32.75 30 32.75H24C23.8011 32.75 23.6103 32.671 23.4697 32.5303C23.329 32.3897 23.25 32.1989 23.25 32C23.25 31.8011 23.329 31.6103 23.4697 31.4697C23.6103 31.329 23.8011 31.25 24 31.25H30C30.1989 31.25 30.3897 31.329 30.5303 31.4697C30.671 31.6103 30.75 31.8011 30.75 32ZM30.75 36C30.75 36.1989 30.671 36.3897 30.5303 36.5303C30.3897 36.671 30.1989 36.75 30 36.75H24C23.8011 36.75 23.6103 36.671 23.4697 36.5303C23.329 36.3897 23.25 36.1989 23.25 36C23.25 35.8011 23.329 35.6103 23.4697 35.4697C23.6103 35.329 23.8011 35.25 24 35.25H30C30.1989 35.25 30.3897 35.329 30.5303 35.4697C30.671 35.6103 30.75 35.8011 30.75 36Z" fill="#248FA8"/>
</svg>
