<svg width="58" height="58" viewBox="0 0 58 58" fill="none" xmlns="http://www.w3.org/2000/svg">
<circle cx="29" cy="29" r="28.5" stroke="#248FA8"/>
<path d="M41.6537 19.3475C41.3055 18.999 40.892 18.7226 40.4368 18.534C39.9817 18.3454 39.4939 18.2483 39.0012 18.2483C38.5086 18.2483 38.0207 18.3454 37.5656 18.534C37.1105 18.7226 36.697 18.999 36.3487 19.3475C36.0672 19.6288 35.8326 19.9533 35.6537 20.3088L31.74 19.2413C31.7892 18.4807 31.6054 17.7232 31.2133 17.0697C30.8211 16.4161 30.2391 15.8976 29.5448 15.5832C28.8505 15.2688 28.0769 15.1734 27.3271 15.3097C26.5772 15.446 25.8867 15.8076 25.3475 16.3463C24.7615 16.9347 24.3867 17.7004 24.2816 18.5242C24.1764 19.3479 24.3468 20.1833 24.7662 20.9L20.2287 24.9838C19.5057 24.4511 18.6157 24.1949 17.7201 24.2617C16.8245 24.3284 15.9824 24.7136 15.3462 25.3475C14.6418 26.037 14.2371 26.9762 14.2199 27.9618C14.2026 28.9474 14.5741 29.9002 15.2541 30.6139C15.934 31.3277 16.8676 31.745 17.8528 31.7756C18.8381 31.8062 19.7958 31.4477 20.5187 30.7775L29.5937 37.4338C29.3075 38.0563 29.1973 38.7453 29.275 39.4261C29.3528 40.1068 29.6156 40.7532 30.0349 41.2951C30.4542 41.8371 31.0139 42.2537 31.6533 42.4999C32.2927 42.7461 32.9874 42.8124 33.6618 42.6917C34.3363 42.5709 34.9647 42.2676 35.479 41.8148C35.9932 41.362 36.3736 40.777 36.5787 40.1233C36.7839 39.4695 36.806 38.7721 36.6427 38.1067C36.4795 37.4412 36.137 36.8333 35.6525 36.3488C35.4362 36.1322 35.1939 35.9433 34.9312 35.7863L38.4862 25.7125C38.6565 25.7362 38.8281 25.7487 39 25.75C39.7414 25.7498 40.4661 25.5299 41.0826 25.118C41.699 24.7061 42.1796 24.1207 42.4634 23.4358C42.7473 22.7509 42.8218 21.9972 42.6774 21.2699C42.5331 20.5427 42.1764 19.8746 41.6525 19.35L41.6537 19.3475ZM26.4037 17.4075C26.7184 17.0929 27.1193 16.8787 27.5558 16.7919C27.9922 16.7052 28.4446 16.7498 28.8557 16.9201C29.2668 17.0904 29.6181 17.3788 29.8653 17.7488C30.1125 18.1188 30.2445 18.5538 30.2445 18.9988C30.2445 19.4437 30.1125 19.8787 29.8653 20.2487C29.6181 20.6187 29.2668 20.9071 28.8557 21.0774C28.4446 21.2477 27.9922 21.2923 27.5558 21.2056C27.1193 21.1188 26.7184 20.9046 26.4037 20.59C26.195 20.3807 26.0296 20.1324 25.9169 19.8592C25.8043 19.586 25.7465 19.2933 25.747 18.9977C25.7474 18.7022 25.8061 18.4096 25.9197 18.1368C26.0332 17.8639 26.1994 17.6161 26.4087 17.4075H26.4037ZM16.4037 29.5913C16.0891 29.2766 15.8749 28.8756 15.7882 28.4392C15.7014 28.0028 15.746 27.5504 15.9163 27.1393C16.0866 26.7282 16.375 26.3769 16.745 26.1297C17.115 25.8825 17.55 25.7505 17.995 25.7505C18.44 25.7505 18.8749 25.8825 19.2449 26.1297C19.6149 26.3769 19.9033 26.7282 20.0736 27.1393C20.244 27.5504 20.2886 28.0028 20.2018 28.4392C20.115 28.8756 19.9008 29.2766 19.5862 29.5913C19.1644 30.0122 18.5928 30.2487 17.9969 30.2487C17.4009 30.2487 16.8293 30.0122 16.4075 29.5913H16.4037ZM34.5875 40.5913C34.2728 40.9059 33.8719 41.1201 33.4354 41.2068C32.999 41.2936 32.5466 41.249 32.1355 41.0787C31.7245 40.9083 31.3731 40.62 31.1259 40.25C30.8787 39.88 30.7467 39.445 30.7467 39C30.7467 38.555 30.8787 38.12 31.1259 37.7501C31.3731 37.3801 31.7245 37.0917 32.1355 36.9213C32.5466 36.751 32.999 36.7064 33.4354 36.7932C33.8719 36.8799 34.2728 37.0942 34.5875 37.4088C34.7969 37.6175 34.9632 37.8654 35.0767 38.1384C35.1903 38.4115 35.2489 38.7042 35.2493 38.9999C35.2496 39.2955 35.1917 39.5884 35.0788 39.8617C34.9658 40.135 34.8002 40.3833 34.5912 40.5925L34.5875 40.5913ZM33.5112 35.2875C32.9679 35.212 32.4147 35.2566 31.8905 35.4181C31.3664 35.5797 30.884 35.8543 30.4775 36.2225L21.405 29.5675C21.6566 29.0179 21.7723 28.4158 21.7423 27.8121C21.7122 27.2083 21.5374 26.6207 21.2325 26.0988L25.77 22.015C26.209 22.3396 26.7136 22.5644 27.2485 22.6737C27.7834 22.7831 28.3358 22.7743 28.8669 22.648C29.3981 22.5217 29.8953 22.2809 30.3237 21.9425C30.7522 21.6041 31.1016 21.1762 31.3475 20.6888L35.2612 21.7563C35.2262 22.2884 35.3051 22.8219 35.4927 23.3211C35.6802 23.8203 35.972 24.2738 36.3487 24.6513C36.566 24.8676 36.8086 25.0569 37.0712 25.215L33.5112 35.2875ZM40.5887 23.5888C40.274 23.9034 39.8731 24.1176 39.4367 24.2043C39.0002 24.2911 38.5479 24.2465 38.1368 24.0762C37.7257 23.9058 37.3743 23.6175 37.1271 23.2475C36.8799 22.8775 36.748 22.4425 36.748 21.9975C36.748 21.5525 36.8799 21.1175 37.1271 20.7476C37.3743 20.3776 37.7257 20.0892 38.1368 19.9188C38.5479 19.7485 39.0002 19.7039 39.4367 19.7907C39.8731 19.8774 40.274 20.0917 40.5887 20.4063C40.7982 20.615 40.9644 20.8629 41.078 21.1359C41.1915 21.409 41.2502 21.7017 41.2505 21.9974C41.2508 22.293 41.1929 22.5859 41.08 22.8592C40.9671 23.1325 40.8014 23.3808 40.5925 23.59L40.5887 23.5888Z" fill="#248FA8"/>
</svg>
