<svg width="58" height="58" viewBox="0 0 58 58" fill="none" xmlns="http://www.w3.org/2000/svg">
<circle cx="29" cy="29" r="28.5" stroke="#248FA8"/>
<path d="M25.25 30C25.25 29.8011 25.329 29.6103 25.4697 29.4697C25.6103 29.329 25.8011 29.25 26 29.25H34C34.1989 29.25 34.3897 29.329 34.5303 29.4697C34.671 29.6103 34.75 29.8011 34.75 30C34.75 30.1989 34.671 30.3897 34.5303 30.5303C34.3897 30.671 34.1989 30.75 34 30.75H26C25.8011 30.75 25.6103 30.671 25.4697 30.5303C25.329 30.3897 25.25 30.1989 25.25 30ZM26 26.75H34C34.1989 26.75 34.3897 26.671 34.5303 26.5303C34.671 26.3897 34.75 26.1989 34.75 26C34.75 25.8011 34.671 25.6103 34.5303 25.4697C34.3897 25.329 34.1989 25.25 34 25.25H26C25.8011 25.25 25.6103 25.329 25.4697 25.4697C25.329 25.6103 25.25 25.8011 25.25 26C25.25 26.1989 25.329 26.3897 25.4697 26.5303C25.6103 26.671 25.8011 26.75 26 26.75ZM41.75 37C41.75 37.9946 41.3549 38.9484 40.6517 39.6517C39.9484 40.3549 38.9946 40.75 38 40.75H24C23.0054 40.75 22.0516 40.3549 21.3483 39.6517C20.6451 38.9484 20.25 37.9946 20.25 37V21C20.25 20.4033 20.0129 19.831 19.591 19.409C19.169 18.9871 18.5967 18.75 18 18.75C17.4033 18.75 16.831 18.9871 16.409 19.409C15.9871 19.831 15.75 20.4033 15.75 21C15.75 21.845 16.4475 22.3988 16.455 22.4038C16.5335 22.4632 16.5996 22.5375 16.6494 22.6224C16.6993 22.7074 16.7319 22.8013 16.7454 22.8989C16.7589 22.9965 16.7531 23.0957 16.7283 23.191C16.7034 23.2863 16.66 23.3758 16.6006 23.4544C16.5412 23.5329 16.4669 23.599 16.3819 23.6488C16.297 23.6987 16.203 23.7313 16.1055 23.7448C16.0079 23.7583 15.9086 23.7525 15.8133 23.7276C15.718 23.7028 15.6285 23.6594 15.55 23.6C15.5 23.56 14.25 22.6062 14.25 21C14.25 20.0054 14.6451 19.0516 15.3483 18.3483C16.0516 17.6451 17.0054 17.25 18 17.25H35C35.9946 17.25 36.9484 17.6451 37.6517 18.3483C38.3549 19.0516 38.75 20.0054 38.75 21V34.25H40C40.1623 34.25 40.3202 34.3026 40.45 34.4C40.5 34.44 41.75 35.3937 41.75 37ZM26.25 37C26.25 36.155 25.5513 35.6012 25.545 35.5963C25.4203 35.5011 25.3285 35.3692 25.2827 35.2192C25.2368 35.0691 25.2392 34.9085 25.2894 34.7599C25.3397 34.6112 25.4352 34.4821 25.5627 34.3906C25.6902 34.2992 25.8431 34.25 26 34.25H37.25V21C37.25 20.4033 37.0129 19.831 36.591 19.409C36.169 18.9871 35.5967 18.75 35 18.75H21C21.4883 19.3983 21.7516 20.1883 21.75 21V37C21.75 37.5967 21.9871 38.169 22.409 38.591C22.831 39.0129 23.4033 39.25 24 39.25C24.5967 39.25 25.169 39.0129 25.591 38.591C26.0129 38.169 26.25 37.5967 26.25 37ZM40.25 37C40.2331 36.5299 40.0393 36.0835 39.7075 35.75H27.485C27.6591 36.1438 27.7493 36.5695 27.75 37C27.7512 37.8116 27.4879 38.6014 27 39.25H38C38.5967 39.25 39.169 39.0129 39.591 38.591C40.0129 38.169 40.25 37.5967 40.25 37Z" fill="#248FA8"/>
</svg>
