<svg width="11" height="10" viewBox="0 0 11 10" fill="none" xmlns="http://www.w3.org/2000/svg">
<path d="M0.450001 1.74609H10.2C10.3875 1.74609 10.575 1.58203 10.575 1.37109V0.433594C10.575 0.246094 10.3875 0.0585945 10.2 0.0585945H0.450001C0.239063 0.0585945 0.0750008 0.246094 0.0750008 0.433594V1.37109C0.0750008 1.58203 0.239063 1.74609 0.450001 1.74609ZM0.450001 5.49609H10.2C10.3875 5.49609 10.575 5.33203 10.575 5.12109V4.18359C10.575 3.99609 10.3875 3.80859 10.2 3.80859H0.450001C0.239063 3.80859 0.0750008 3.99609 0.0750008 4.18359V5.12109C0.0750008 5.33203 0.239063 5.49609 0.450001 5.49609ZM0.450001 9.24609H10.2C10.3875 9.24609 10.575 9.08203 10.575 8.87109V7.93359C10.575 7.74609 10.3875 7.55859 10.2 7.55859H0.450001C0.239063 7.55859 0.0750008 7.74609 0.0750008 7.93359V8.87109C0.0750008 9.08203 0.239063 9.24609 0.450001 9.24609Z" fill="#248FA8"/>
</svg>
