<svg width="15" height="15" viewBox="0 0 15 15" fill="none" xmlns="http://www.w3.org/2000/svg">
<path d="M9.33975 2.34375C10.1348 2.55713 10.8598 2.97589 11.4419 3.55799C12.024 4.1401 12.4428 4.86507 12.6562 5.66016" stroke="white" stroke-linecap="round" stroke-linejoin="round"/>
<path d="M8.85361 4.1543C9.3318 4.2813 9.76793 4.53245 10.1178 4.88231C10.4676 5.23216 10.7188 5.66829 10.8458 6.14648" stroke="white" stroke-linecap="round" stroke-linejoin="round"/>
<path d="M5.41992 7.31261C5.90228 8.30871 6.70774 9.11211 7.70508 9.59191C7.77865 9.62674 7.86002 9.64182 7.94118 9.63565C8.02235 9.62949 8.10051 9.6023 8.16797 9.55675L9.63281 8.57824C9.69753 8.53434 9.77232 8.50756 9.85019 8.50038C9.92806 8.49321 10.0065 8.50588 10.0781 8.53722L12.8203 9.71495C12.914 9.75396 12.9923 9.8227 13.0432 9.91057C13.094 9.99845 13.1145 10.1006 13.1016 10.2013C13.0147 10.8796 12.6835 11.5031 12.1702 11.955C11.6568 12.4069 10.9964 12.6562 10.3125 12.6564C8.19906 12.6564 6.17217 11.8168 4.67774 10.3224C3.18331 8.82794 2.34375 6.80105 2.34375 4.68761C2.3439 4.0037 2.59325 3.34328 3.04513 2.82993C3.49701 2.31657 4.12047 1.98546 4.79883 1.89855C4.89951 1.88561 5.00166 1.90614 5.08954 1.95696C5.17742 2.00778 5.24615 2.08608 5.28516 2.1798L6.46289 4.92785C6.49352 4.99836 6.50633 5.07533 6.5002 5.15196C6.49407 5.2286 6.46918 5.30255 6.42773 5.3673L5.44922 6.85558C5.40566 6.92289 5.38009 7.00026 5.37496 7.08027C5.36983 7.16029 5.38531 7.24029 5.41992 7.31261Z" stroke="white" stroke-linecap="round" stroke-linejoin="round"/>
</svg>
