<svg width="34" height="33" viewBox="0 0 34 33" fill="none" xmlns="http://www.w3.org/2000/svg">
<path d="M12.0463 18.023H13.0476V22.9744H14.0077V18.023H15.0089V17.1863H12.0463V18.023ZM17.1074 21.9457C16.9429 22.1377 16.3805 22.5218 16.3805 21.9732V18.6951H15.5301V22.2749C15.5301 23.3585 16.6137 23.0704 17.1212 22.5081V22.9744H17.9715V18.6951H17.1212V21.9457H17.1074ZM20.2758 18.6676C19.782 18.6676 19.4666 19.038 19.4666 19.038V17.1726H18.6025V22.9744H19.4666V22.6452C19.4666 22.6452 19.7546 23.0293 20.2758 23.0293C20.7284 23.0293 21.0713 22.6315 21.0713 22.0829V19.71C21.0713 19.0654 20.7696 18.6676 20.2758 18.6676ZM20.1798 21.9732C20.1798 22.2886 19.9603 22.4395 19.6723 22.3161C19.5945 22.2797 19.5246 22.2284 19.4666 22.1652V19.5043C19.5214 19.4494 19.59 19.4083 19.6449 19.3671C19.9466 19.2163 20.1798 19.4494 20.1798 19.7649V21.9732ZM23.3482 21.7537C23.3482 22.0829 23.1698 22.3023 22.9641 22.3161C22.7447 22.3298 22.5252 22.1515 22.5252 21.7537V20.9445H24.1574V19.8472C24.1616 19.6801 24.1322 19.5139 24.0709 19.3584C24.0097 19.2029 23.9178 19.0613 23.8008 18.942C23.5648 18.7267 23.256 18.6091 22.9367 18.6128C22.6349 18.6128 22.3195 18.7088 22.0726 18.9008C21.812 19.1065 21.6474 19.422 21.6474 19.8472V21.7674C21.6474 22.1515 21.7708 22.4532 21.9629 22.6727C22.196 22.9195 22.5115 23.0567 22.8407 23.0704C23.2384 23.0841 23.6636 22.9195 23.9105 22.5766C24.0614 22.3709 24.1574 22.0966 24.1574 21.7674V21.548H23.3482V21.7537ZM22.5252 19.8472C22.5252 19.614 22.6624 19.3397 22.923 19.3397C23.1836 19.3397 23.3482 19.5866 23.3482 19.8472V20.2861H22.5252V19.8472Z" fill="white"/>
<path d="M18.2047 4.11475C16.5835 4.11484 14.9783 4.43424 13.4806 5.05471C11.9828 5.67519 10.622 6.58458 9.47571 7.73098C8.32944 8.87738 7.42019 10.2383 6.79988 11.7361C6.17958 13.2339 5.86035 14.8392 5.86044 16.4604C5.86053 18.0815 6.17993 19.6868 6.80041 21.1845C7.42088 22.6823 8.33028 24.0431 9.47668 25.1894C10.6231 26.3356 11.984 27.2449 13.4818 27.8652C14.9796 28.4855 16.5849 28.8047 18.2061 28.8046C21.4802 28.8045 24.6201 27.5037 26.9351 25.1884C29.2501 22.8731 30.5505 19.7331 30.5503 16.459C30.5502 13.1849 29.2494 10.045 26.9341 7.73001C24.6188 5.41501 21.4788 4.11456 18.2047 4.11475ZM20.3718 8.73699H21.4691V12.4128C21.4691 12.646 21.5788 12.646 21.62 12.646C21.7845 12.646 22.0314 12.4677 22.1549 12.3443V8.72327H23.2521V13.5787H22.1549V13.1535C22.004 13.2906 21.8531 13.4004 21.7022 13.4827C21.4965 13.5924 21.3045 13.6335 21.1125 13.6335C21.0073 13.6386 20.9024 13.6203 20.8052 13.58C20.7079 13.5397 20.6208 13.4783 20.5501 13.4004C20.4267 13.2495 20.3718 13.0163 20.3718 12.7283V8.73699ZM16.8743 10.0126C16.8743 9.25819 17.4915 8.64098 18.2459 8.64098C19.0002 8.64098 19.6174 9.25819 19.6174 10.0126V12.3443C19.6174 13.0986 19.0002 13.7158 18.2459 13.7158C17.4915 13.7158 16.8743 13.0986 16.8743 12.3443V10.0126ZM14.0214 7.06365L14.6797 9.47764L15.3518 7.06365H16.6L15.3107 10.8767V13.5787H14.09V10.8767L12.7732 7.06365H14.0214ZM24.8569 24.2633C24.1574 24.9491 18.2321 24.9628 18.2321 24.9628C18.2321 24.9628 12.3206 24.9491 11.6074 24.2633C10.9079 23.5775 10.9079 20.1623 10.9079 20.1349C10.9079 20.1211 10.9079 16.7059 11.6074 16.0064C12.3069 15.3206 18.2321 15.3069 18.2321 15.3069C18.2321 15.3069 24.1437 15.3206 24.8569 16.0064C25.5564 16.6922 25.5701 20.1074 25.5701 20.1349C25.5701 20.1349 25.5701 23.5638 24.8569 24.2633Z" fill="white"/>
<path d="M18.2185 12.824C18.4516 12.824 18.5614 12.6869 18.5751 12.4674V9.86141C18.5751 9.6831 18.3968 9.53223 18.2322 9.53223C18.0676 9.53223 17.8893 9.66939 17.8893 9.86141V12.4674C17.8893 12.6732 17.9853 12.8103 18.2185 12.824Z" fill="white"/>
</svg>
